<svg width="1043" height="423" viewBox="0 0 1043 423" fill="none" xmlns="http://www.w3.org/2000/svg">
<path d="M-4 45.0378L1049 128.538V458.5H-4V45.0378Z" fill="#0E091B"/>
<path d="M-12 57.5378L1069 201.538L1111 57.5378L721.5 100.769L-91 0L-12 57.5378Z" fill="#110D33"/>
<path d="M-12 57.5378L1069 201.538L1111 57.5379L721.5 100.769L-91 3.8147e-05L-12 57.5378Z" fill="white" fill-opacity="0.1"/>
<path fill-rule="evenodd" clip-rule="evenodd" d="M712.425 29.9379C712.222 27.2664 710.745 24.7913 708.348 23.5958C704.045 21.4504 700.839 21.446 696.934 23.7173C694.958 24.8668 693.764 26.9822 693.515 29.2548C693.123 32.8328 693.192 35.6681 693.741 39.537C693.9 40.6553 694.419 41.9365 695.093 42.8428C697.232 45.7182 698.878 49.062 697.581 51.9447C697.434 52.2713 697.062 52.4136 696.721 52.3021C696.579 52.2557 696.422 52.2488 696.278 52.2869C693.276 53.08 691.969 53.907 690.165 55.5759C690.056 55.6762 689.971 55.8026 689.917 55.9402C685.245 67.784 683.334 74.7552 681.06 87.3939C681.021 87.6091 681.055 87.8361 681.155 88.0304C683.704 92.976 685.543 95.6466 689.573 99.3415C689.836 99.5824 689.955 99.9437 689.881 100.293L688.153 108.501C688.062 108.933 688.265 109.374 688.653 109.585L693.011 111.962C693.315 112.128 693.512 112.439 693.531 112.785L696.48 166.365C696.493 166.6 696.423 166.832 696.282 167.02L694.7 169.129C694.206 169.788 694.676 170.729 695.5 170.729H700.382C701.125 170.729 701.609 169.947 701.276 169.282L700.106 166.94C700.036 166.801 700 166.648 700 166.493V133.729L701.908 115.127C701.96 114.617 702.39 114.229 702.903 114.229H704.049C704.582 114.229 705.021 114.647 705.048 115.179L705.996 134.145C705.999 134.201 706.006 134.257 706.018 134.312L706.969 138.591C706.99 138.683 706.997 138.777 706.991 138.87L705.058 169.796C705.026 170.321 705.405 170.782 705.927 170.85L713.585 171.849C714.531 171.972 715.096 170.825 714.421 170.15L709.813 165.542C709.614 165.343 709.508 165.068 709.522 164.786L711.953 115.18C711.98 114.647 712.419 114.229 712.952 114.229H715.313C715.933 114.229 716.404 113.67 716.298 113.059L714.455 102.37C714.298 101.458 715.358 100.84 716.074 101.426L717.867 102.893C718.52 103.427 719.5 102.962 719.5 102.119V95.974C719.5 95.8131 719.539 95.6537 719.613 95.5107C721.124 92.5885 721.734 90.8822 722.46 87.8943C722.486 87.7855 722.494 87.6702 722.483 87.5589C721.249 75.1771 719.667 68.2243 716.598 56.1168C716.536 55.8699 716.38 55.6521 716.165 55.5161C713.686 53.9505 712.206 53.1843 709.809 52.3368C709.609 52.2661 709.391 52.2628 709.188 52.3239C708.979 52.3867 708.775 52.4469 708.573 52.5045C708.037 52.6581 707.495 52.3212 707.249 51.8205C707.002 51.315 706.666 50.8533 706.274 50.4905C705.847 50.0952 705.501 49.4036 705.501 48.8216V48.567C705.501 47.719 705.881 46.9198 706.514 46.3554C708.359 44.7102 709.619 43.2227 711.196 40.6095C711.742 39.7048 712.098 38.6955 712.237 37.6479C712.611 34.8079 712.625 32.565 712.425 29.9379Z" fill="#0E091B"/>
<path fill-rule="evenodd" clip-rule="evenodd" d="M658.545 31.4528C661.045 32.6004 662.626 35.1179 662.829 37.8614C662.999 40.1503 662.975 42.1609 662.635 44.6461C662.484 45.7483 662.086 46.8046 661.479 47.7368C659.904 50.1543 658.632 51.5446 656.77 53.0905C656.156 53.5999 655.785 54.3482 655.785 55.1457V55.3473C655.785 55.9233 656.131 56.591 656.567 56.9678C656.951 57.2999 657.277 57.7309 657.519 58.2069C657.768 58.6981 658.298 59.0359 658.831 58.8943C659.064 58.8322 659.302 58.767 659.545 58.6986C659.736 58.6447 659.939 58.6476 660.128 58.7098C662.568 59.5141 664.069 60.2385 666.583 61.7217C666.807 61.8535 666.971 62.0717 667.039 62.3221C670.143 73.7601 671.744 80.3396 672.993 92.0383C673.006 92.1572 672.997 92.2803 672.967 92.396C672.236 95.2051 671.618 96.8182 670.099 99.565C670.017 99.7143 669.972 99.8826 669.972 100.053V105.816C669.972 106.645 669.023 107.114 668.365 106.611L666.46 105.155C665.733 104.599 664.703 105.231 664.869 106.131L666.714 116.124C666.827 116.739 666.356 117.305 665.731 117.305H663.32C662.789 117.305 662.35 117.722 662.322 118.253L659.862 165.118C659.847 165.413 659.963 165.699 660.178 165.901L664.69 170.115C665.397 170.775 664.847 171.955 663.886 171.838L656.218 170.904C655.69 170.84 655.305 170.374 655.341 169.844L657.292 140.683C657.3 140.56 657.286 140.437 657.25 140.32C656.601 138.175 656.216 135.959 656.103 133.72L655.325 118.255C655.298 117.723 654.859 117.305 654.327 117.305H653.133C652.623 117.305 652.195 117.689 652.139 118.196L650.21 135.764V166.752C650.21 166.917 650.251 167.079 650.329 167.224L651.449 169.317C651.806 169.983 651.323 170.789 650.568 170.789H645.708C644.869 170.789 644.403 169.818 644.929 169.163L646.422 167.303C646.577 167.11 646.655 166.866 646.641 166.618L643.657 115.984C643.636 115.63 643.429 115.313 643.112 115.152L638.741 112.925C638.334 112.718 638.119 112.26 638.22 111.814L639.942 104.173C640.024 103.808 639.895 103.428 639.612 103.185C635.558 99.7095 633.696 97.186 631.129 92.5367C631.017 92.3331 630.979 92.0918 631.023 91.8635C633.324 79.9294 635.26 73.3331 639.985 62.1424C640.044 62.0031 640.135 61.8764 640.249 61.7776C642.077 60.1996 643.403 59.4178 646.45 58.667C646.589 58.6329 646.739 58.639 646.875 58.6808C647.217 58.7853 647.587 58.6432 647.734 58.3177C648.961 55.6055 647.374 52.4127 645.238 49.7306C644.547 48.8626 644.024 47.6379 643.859 46.5408C643.326 43.0165 643.248 40.395 643.605 37.1646C643.863 34.8251 645.151 32.6669 647.228 31.5585C651.091 29.496 654.293 29.5008 658.545 31.4528ZM707.26 32.3528C710.738 32.442 713.823 34.6084 715.088 37.8495L715.263 38.2992C716.33 41.033 715.782 44.1336 713.844 46.3367C712.354 48.0297 710.208 49 707.952 49H694.734C692.504 49 690.524 47.5731 689.819 45.4577C689.451 44.3516 689.466 43.1536 689.862 42.0573L690.802 39.4582C692.413 35.0045 696.694 32.0819 701.428 32.2033L707.26 32.3528Z" fill="#0E091B"/>
</svg>
