<svg width="69" height="74" viewBox="0 0 69 74" fill="none" xmlns="http://www.w3.org/2000/svg">
<g clip-path="url(#clip0)">
<path d="M69 29.0824C68.9188 30.479 68.9188 31.7113 68.675 33.0258C68.1876 35.4904 66.8877 36.1476 64.7753 34.9153C61.5256 33.1079 58.1946 31.3827 55.1073 29.411C51.2076 26.9464 46.983 25.4676 42.677 23.9889C37.315 22.0993 32.2779 19.799 27.2407 17.2523C27.0783 17.1701 26.997 17.088 26.8345 17.0058C23.5035 15.6913 20.2538 14.3769 16.7603 12.9803C16.9228 14.0483 17.654 14.459 18.2227 14.952C21.5537 17.8273 24.8847 20.6206 28.2157 23.4959C32.0341 26.8642 35.7713 30.3147 39.5898 33.7651C42.5958 36.4762 45.7643 39.023 48.7703 41.734C51.9388 44.6094 54.9448 47.7312 58.1133 50.7709C57.5446 52.9069 58.0321 55.5358 54.8636 56.6038C41.8646 44.1165 28.7031 31.547 15.4604 18.9775C15.8666 21.0313 16.8416 22.6744 17.8165 24.3996C21.1475 30.479 24.6409 36.4762 27.8907 42.7199C31.1404 48.9636 34.0652 55.3715 37.1525 61.6974C38.2899 63.9977 38.4524 66.2158 37.4774 68.5983C37.2337 69.2555 36.7463 69.9127 36.2588 70.2413C35.0401 71.145 34.0652 70.8164 33.334 69.502C32.6028 68.1875 32.0341 66.7087 31.3842 65.3943C28.4594 59.2328 25.6159 53.0712 22.5286 46.9919C18.5477 38.9408 14.4042 30.8898 10.2608 22.8387C9.61086 21.5242 8.79843 20.2098 7.57977 18.9775C7.49853 19.4704 7.33604 19.9633 7.41728 20.3741C8.14848 24.8104 8.71718 29.2467 9.77335 33.6008C11.0732 39.023 11.8044 44.4451 12.4544 49.9494C13.1043 55.5358 13.998 61.0401 14.8105 66.6266C14.9729 67.7767 14.9729 69.009 15.0542 70.2413C15.0542 71.6379 14.1605 72.7059 13.1043 73.3632C11.3982 74.5955 9.93584 74.0204 9.44838 71.8023C8.71718 68.2697 8.06723 64.737 7.49853 61.2044C6.76733 56.0288 6.19863 50.8531 5.54868 45.6774C5.30495 43.9522 4.81748 42.227 4.57375 40.5017C3.9238 36.3941 3.11137 32.2864 2.86764 28.1787C2.54266 22.5101 1.81147 16.9236 0.51157 11.5015C-0.463355 7.31167 -0.219624 3.3683 2.78639 0C9.04216 0.657229 15.2167 1.31446 21.4724 1.88953C22.7723 1.97169 24.1535 1.80738 25.4534 1.56092C27.7282 1.15015 30.003 1.15015 32.2779 1.47877C35.0401 1.88953 37.8024 1.97169 40.5647 2.21815C42.3521 2.38245 44.1394 2.62892 46.008 2.79322C47.4704 2.95753 49.0953 2.95753 50.6389 3.03968C53.2387 3.12184 55.8385 3.12184 58.4383 3.3683C60.5507 3.61476 61.1194 4.68276 60.3882 6.7366C60.2257 7.31167 59.8195 7.88675 59.5757 8.46182C59.0883 9.61197 58.1946 10.1049 56.9759 10.1049C51.6951 10.1049 46.4143 9.77628 41.2147 8.37967C39.671 7.9689 37.8837 8.13321 36.34 7.72244C29.9218 6.24367 23.4223 6.9009 16.9228 6.40798C16.7603 6.40798 16.5166 6.57229 16.2728 6.65444C16.3541 6.81875 16.3541 7.06521 16.4353 7.14736C19.8476 9.0369 22.9348 11.3372 26.7533 12.4873C30.0843 13.4732 33.2528 15.1163 36.5025 16.3486C39.2648 17.4166 42.1083 18.4024 44.9519 19.4704C46.5767 20.0455 48.2829 20.5384 49.8265 21.2778C53.9699 23.2495 58.4383 24.5639 62.7442 26.0427C64.8566 26.8642 66.8064 28.0144 69 29.0824Z" fill="black"/>
</g>
<defs>
<clipPath id="clip0">
<path d="M0 0H69V74H0V0Z" fill="white"/>
</clipPath>
</defs>
</svg>
