<svg width="72" height="69" viewBox="0 0 72 69" fill="none" xmlns="http://www.w3.org/2000/svg">
<path fill-rule="evenodd" clip-rule="evenodd" d="M0 0H48V21H72V69H24V48H0V0ZM26.28 37.472H17.016V40.352H26.04C29.544 40.352 32.28 38.864 32.28 35.12V8.47998H29.064V10.352C26.568 9.008 22.68 8 20.232 8C16.872 8 15 10.112 15 13.232V26C15 29.12 16.872 31.232 20.232 31.232C22.68 31.232 26.52 30.224 29.016 28.88V34.688C29.016 36.416 28.008 37.472 26.28 37.472ZM29.016 24.08C29.016 25.664 27.864 26.384 26.232 26.96C24.504 27.584 22.344 28.16 21.048 28.16C18.84 28.16 18.264 26.816 18.264 24.704V14.528C18.264 12.416 18.84 11.072 21.048 11.072C22.344 11.072 24.504 11.648 26.232 12.272C27.864 12.848 29.016 13.568 29.016 15.152V24.08ZM53.016 29V40.088C50.52 38.744 46.68 37.736 44.232 37.736C40.872 37.736 39 39.848 39 42.968V56.216C39 59.336 40.872 61.448 44.232 61.448C46.68 61.448 50.568 60.44 53.064 59.096V60.968H56.28V29H53.016ZM53.016 54.296C53.016 55.88 51.864 56.6 50.232 57.176C48.504 57.8 46.344 58.376 45.048 58.376C42.84 58.376 42.264 57.032 42.264 54.92V44.264C42.264 42.152 42.84 40.808 45.048 40.808C46.344 40.808 48.504 41.384 50.232 42.008C51.864 42.584 53.016 43.304 53.016 44.888V54.296Z" fill="black"/>
</svg>
