<svg width="382" height="280" viewBox="0 0 382 280" fill="none" xmlns="http://www.w3.org/2000/svg">
<path d="M271.913 132.078C239.584 134.436 204.04 105.716 201.816 73.6846C200.685 57.2144 206.729 35.2745 218.159 22.8206C229.069 10.9963 247.853 5.75777 263.664 4.83706C279.294 3.92415 297.414 7.27707 309.339 17.6974C322.462 29.1595 331.154 46.338 331.486 63.9963C332.065 98.7701 308.356 129.362 271.913 132.078Z" fill="#FF8787"/>
<path d="M204.184 79.9C180.367 86.8478 165.511 93.5803 166.307 97.9513C167.694 105.558 215.96 103.132 274.114 92.5336C332.268 81.9347 378.287 67.1762 376.901 59.5696C376.147 55.4357 361.548 54.2648 339.041 55.7584" stroke="#FFF4E6" stroke-width="2" stroke-linecap="round" stroke-linejoin="round"/>
<path d="M50.9481 218.968C44.3347 205.48 53.4407 182.684 67.4732 177.666C75.5947 174.809 86.4045 173.295 94.3736 177.848C101.603 181.994 106.574 189.945 109.355 197.759C112.086 205.323 112.931 213.978 109.637 221.561C105.9 230.244 97.5333 234.039 89.8707 237.435C73.5345 244.701 57.7761 232.767 50.9481 218.968Z" fill="#4DABF7"/>
<path d="M0.00827633 15.9311C-0.289443 10.085 7.50538 2.31723 13.6492 3.04799C17.3842 3.48104 22.0665 4.78017 24.2588 8.10921C26.3158 11.2217 27.6149 15.6604 26.8842 19.2331C26.2617 22.3185 24.746 25.81 22.1207 27.8128C19.2788 29.951 14.7048 31.4937 11.484 30.5735C4.33873 28.5165 0.441322 24.2402 0.00827633 15.9311Z" fill="#FFF4E6"/>
<circle cx="293.5" cy="265.5" r="13" stroke="#E9ECEF" stroke-width="3"/>
</svg>
