<svg width="65" height="63" viewBox="0 0 65 63" fill="none" xmlns="http://www.w3.org/2000/svg">
<g clip-path="url(#clip0)">
<path d="M49.5664 55.5373C50.5844 55.9428 51.5346 56.416 52.4847 56.6188C55.1316 57.1596 57.7785 57.5652 60.4932 58.0383C61.1719 58.1735 61.8506 58.3087 62.5293 58.4439C63.2758 58.6467 63.683 59.0523 63.9545 59.8634C64.226 60.6746 63.683 61.0126 63.2079 61.4858C62.3935 62.2293 61.5112 62.6349 60.4253 62.5673C56.964 62.2969 53.5027 62.1617 50.1772 61.0126C49.8378 60.8774 49.4306 60.8098 49.0913 60.6746C47.191 59.9986 45.5621 59.8634 43.5939 60.945C41.0149 62.3645 38.0287 62.6349 35.0425 62.8377C33.8209 62.9053 32.6671 63.0405 31.4455 62.9729C26.8983 62.7025 22.8941 61.1478 18.9577 58.8495C14.0033 55.9428 10.4741 51.8194 7.08069 47.4933C4.9089 44.7218 3.6194 41.4772 2.66924 38.1649C1.99055 36.0694 1.37973 33.9064 1.37973 31.6757C1.37973 30.7293 1.51547 29.783 1.65121 28.431C2.19416 28.9718 2.5335 29.1746 2.7371 29.5126C3.6194 30.9997 4.77316 32.4868 5.31611 34.1091C6.1984 36.8806 7.21643 39.5169 8.7774 41.9503C10.3384 44.4514 12.2387 46.7497 14.139 49.048C15.4285 50.6027 16.9895 52.0222 18.4826 53.4418C20.1793 55.1317 22.2832 56.2808 24.455 57.3624C26.2875 58.2411 28.1878 58.9847 30.2238 59.5255C32.5314 60.0662 34.8389 60.1338 37.1464 59.7958C38.6395 59.5255 40.1327 59.2551 41.6258 58.9847C41.8972 58.9171 42.1008 58.7143 42.5759 58.5115C42.1008 58.1735 41.8294 57.9031 41.49 57.7679C36.3999 55.6049 32.5992 51.9546 28.9343 47.9664C26.6268 45.4654 24.9301 42.6263 23.1655 39.7197C22.3511 38.3677 20.9937 37.2186 19.6364 36.2046C16.8538 34.1767 14.2748 31.9461 11.8994 29.5126C11.2885 28.8366 10.6099 28.1606 9.99903 27.4847C8.91314 26.3355 7.89511 25.1864 6.74135 24.1049C4.16234 21.6714 2.32989 18.6971 1.244 15.4525C0.565312 13.357 0.293838 11.1263 0.0223643 8.96322C-0.181241 7.3409 1.04039 6.19176 2.26202 5.51579C4.09447 4.43425 6.13053 3.62309 8.16658 2.81193C10.8135 1.79798 13.3925 2.13597 15.9036 3.21751C17.1252 3.75828 18.3469 4.16386 19.5006 4.77223C20.4508 5.24541 21.3331 5.17781 22.2154 4.56944C23.8442 3.55549 25.5409 2.54155 27.3055 1.66279C30.0202 0.243263 32.8029 -0.5003 35.9248 0.378456C37.4179 0.784035 38.911 1.18961 40.3363 1.93318C42.5759 3.21751 45.0192 4.23146 47.2588 5.58339C48.8198 6.52974 50.1772 7.81408 51.6024 8.96322C51.7382 9.03082 51.806 9.23361 51.9418 9.3012C55.0637 11.5995 56.2854 15.1145 57.9142 18.4267C58.4571 19.5083 58.8644 20.725 59.2037 21.9418C60.086 24.7132 59.8824 27.6199 59.543 30.4589C59.4073 31.5405 59.1358 32.5544 59.0001 33.636C58.525 37.0158 57.0319 39.8549 54.1814 41.8152C52.2811 43.0995 51.7382 44.5866 51.7382 46.7497C51.7382 48.7776 51.0595 50.7379 50.5844 52.7658C50.3129 53.6446 49.9057 54.5233 49.5664 55.5373ZM23.6406 11.5319C23.3691 12.5458 23.0977 13.1542 23.0298 13.8302C23.0298 15.6553 23.1655 17.4804 23.1655 19.3055C23.2334 24.1049 24.5229 28.5662 26.0839 33.0276C26.8304 35.1231 27.9842 36.813 29.613 38.3001C33.6851 41.8827 38.3002 43.3699 43.6618 42.8967C44.069 42.8291 44.4762 42.7615 45.1549 42.6263C45.0871 41.7476 45.2907 40.8012 45.0192 40.1252C43.6618 36.9482 42.3044 33.7712 40.5399 30.7969C38.5717 27.4847 36.1963 24.5104 34.0245 21.3334C32.735 19.3731 31.3097 17.548 29.4773 16.0609C27.9842 14.8441 26.559 13.695 25.0658 12.4782C24.7265 12.1403 24.3193 11.9375 23.6406 11.5319ZM25.1337 6.39455C27.4412 8.15206 29.613 9.77438 31.8527 11.3967C33.8209 12.8162 35.5176 14.5737 37.0786 16.4664C37.7573 17.3452 38.5038 18.2239 39.3861 18.8999C40.5399 19.8463 41.4222 20.9278 42.2366 22.1445C43.8654 24.578 45.4943 26.9439 47.1231 29.3774C48.9556 32.1488 50.5165 35.1231 51.1952 38.5029C51.2631 38.9761 51.4667 39.3817 51.6024 39.99C52.9598 39.0437 53.4349 37.7594 53.5706 36.4074C54.1814 31.8785 54.385 27.4171 52.5526 23.0233C51.2631 19.9139 49.77 17.0072 47.5303 14.3709C45.2907 11.7347 42.3044 9.97717 40.1326 7.3409C39.929 7.07052 39.5897 7.00292 39.3182 6.86773C38.0287 6.12416 36.7392 5.31301 35.3819 4.56944C34.8389 4.29906 34.296 4.09627 33.753 3.89348C32.8707 3.69069 31.9206 3.55549 31.0383 3.3527C28.6629 2.81193 26.2196 4.02867 25.1337 6.39455ZM19.4328 29.3774C19.297 28.6338 19.297 28.093 19.1613 27.6199C18.3469 24.7132 18.1433 21.739 18.0754 18.8323C18.0075 15.9257 18.4826 13.019 18.6862 10.18C18.8219 8.96322 18.8219 8.82803 17.8039 8.42245C15.8357 7.61129 13.9354 6.73253 11.9672 5.98897C11.0849 5.65099 10.1348 5.313 9.18461 5.17781C6.60561 4.90743 4.84103 6.80013 5.31611 9.3688C5.51971 10.5855 5.92692 11.8023 6.13053 13.019C6.74135 16.7368 8.91314 19.6435 11.4243 22.2797C12.9174 23.8345 14.4784 25.254 16.1072 26.7411C17.1252 27.5523 17.9397 28.7014 19.4328 29.3774ZM44.612 54.3881C46.0372 51.2787 45.7657 48.372 45.4943 45.195C41.5579 46.1413 37.7573 46.0737 33.6173 45.7358C36.6035 49.8591 40.3363 52.2926 44.612 54.3881Z" fill="black"/>
</g>
<defs>
<clipPath id="clip0">
<path d="M0 0H65V63H0V0Z" fill="white"/>
</clipPath>
</defs>
</svg>
